#define desk_toggled_width 8
#define desk_toggled_height 8
static unsigned char desk_toggled_bits[] = {
   0xFF, 0x81, 0x81, 0x99, 0x99, 0x81, 0x81, 0xFF, };
