<svg width="96" version="1.1" xmlns="http://www.w3.org/2000/svg" height="96" viewBox="0 0 27 27" xmlns:xlink="http://www.w3.org/1999/xlink">
<defs>
<linearGradient gradientTransform="matrix(3,0,0,3,201,666)" id="linearGradient7003" xlink:href="#linearGradient3837-8" y1="15" y2="1" x1="15" x2="15" gradientUnits="userSpaceOnUse"/>
<linearGradient gradientTransform="matrix(1,0,0,0.5,0,633.5)" xlink:href="#linearGradient9211" id="linearGradient1063" y1="1267" x1="207" y2="1269" gradientUnits="userSpaceOnUse" x2="207"/>
<linearGradient id="linearGradient6989" xlink:href="#linearGradient3837-8" y1="711" y2="669" x1="246" x2="246" gradientUnits="userSpaceOnUse"/>
<linearGradient id="linearGradient6987" xlink:href="#linearGradient3837-8" y1="708" y2="672" x1="243" x2="243" gradientUnits="userSpaceOnUse"/>
<linearGradient gradientTransform="matrix(3,0,0,3,201,666)" id="linearGradient6985" xlink:href="#linearGradient3837-8" y1="15" y2="1" x1="1" x2="1" gradientUnits="userSpaceOnUse"/>
<linearGradient gradientTransform="matrix(1.6,0,0,-1.6,-155,4309)" id="linearGradient9231" xlink:href="#linearGradient9211" y1="1552.5" y2="1555" x1="187.5" gradientUnits="userSpaceOnUse" x2="187.5"/>
<linearGradient gradientTransform="matrix(0,-0.28125,-0.28125,0,-31.5,538.3125)" id="linearGradient9129" xlink:href="#linearGradient9211" y1="-223" y2="-223" x1="1890" gradientUnits="userSpaceOnUse" x2="1894"/>
<linearGradient gradientTransform="matrix(-0.28125,0,0,0.28125,101.15349,-524.44497)" id="linearGradient9096" xlink:href="#linearGradient9211" y1="1876.6935" y2="1876.6935" x1="236.65685" gradientUnits="userSpaceOnUse" x2="240.65685"/>
<linearGradient gradientTransform="matrix(0.28125,0,0,0.28125,-29.715988,-524.44497)" id="linearGradient8841" xlink:href="#linearGradient3837-8" y1="1876.6935" y2="1876.6932" x1="204.65685" gradientUnits="userSpaceOnUse" x2="209.65685"/>
<linearGradient gradientTransform="matrix(0,0.28125,-0.28125,0,-31.403516,-523.31997)" id="linearGradient9145" xlink:href="#linearGradient3837-8" y1="-222.65691" y2="-222.65695" x1="1860.6935" gradientUnits="userSpaceOnUse" x2="1865.6932"/>
<linearGradient gradientTransform="matrix(-1.6,0,0,-1.6,461,4309)" id="linearGradient9177" xlink:href="#linearGradient9211" y1="1555" y2="1555" x1="185" gradientUnits="userSpaceOnUse" x2="187.5"/>
<linearGradient id="linearGradient9211">
<stop offset="0" style="stop-color:#fff"/>
<stop offset="1" style="stop-color:#fff;stop-opacity:0"/>
</linearGradient>
<linearGradient gradientTransform="matrix(3,0,0,3,201,666)" id="linearGradient7001" xlink:href="#linearGradient3837-8" y1="14" y2="2" x1="14" x2="14" gradientUnits="userSpaceOnUse"/>
<linearGradient xlink:href="#linearGradient1135" id="linearGradient1137" y1="675" x1="240" y2="705" x2="240" gradientUnits="userSpaceOnUse"/>
<linearGradient gradientTransform="matrix(3,0,0,3,201,666)" id="linearGradient6983" xlink:href="#linearGradient3837-8" y1="14" y2="2" x1="2" x2="2" gradientUnits="userSpaceOnUse"/>
<linearGradient id="linearGradient7165">
<stop offset="0" style="stop-color:#464646"/>
<stop offset="1" style="stop-color:#0a0a0a"/>
</linearGradient>
<linearGradient xlink:href="#linearGradient7165" id="linearGradient1061" y1="28.362183" x1="-59" y2="43.362183" gradientUnits="userSpaceOnUse" x2="-59"/>
<linearGradient xlink:href="#linearGradient7165" id="linearGradient1059" y1="28.362183" x1="-59" y2="43.362183" gradientUnits="userSpaceOnUse" x2="-59"/>
<linearGradient xlink:href="#linearGradient1127" id="linearGradient1129" y1="675" x1="210" y2="705" x2="210" gradientUnits="userSpaceOnUse"/>
<linearGradient id="linearGradient6975" xlink:href="#linearGradient3837-8" y1="711" y2="669" x1="204" x2="204" gradientUnits="userSpaceOnUse"/>
<linearGradient gradientTransform="matrix(3,0,0,3,201,666)" xlink:href="#linearGradient3837-8" id="linearGradient1082" y1="15" x1="15" y2="1" gradientUnits="userSpaceOnUse" x2="15"/>
<linearGradient gradientTransform="matrix(3,0,0,3,201,666)" xlink:href="#linearGradient3837-8" id="linearGradient1070" y1="14" x1="2" y2="2" gradientUnits="userSpaceOnUse" x2="2"/>
<linearGradient gradientTransform="matrix(3,0,0,3,201,666)" xlink:href="#linearGradient3837-8" id="linearGradient1074" y1="14" x1="2" y2="2" gradientUnits="userSpaceOnUse" x2="2"/>
<linearGradient gradientTransform="matrix(3,0,0,3,201,666)" xlink:href="#linearGradient3837-8" id="linearGradient1080" y1="14" x1="14" y2="2" gradientUnits="userSpaceOnUse" x2="14"/>
<linearGradient gradientTransform="matrix(3,0,0,3,201,666)" xlink:href="#linearGradient3837-8" id="linearGradient1072" y1="15" x1="1" y2="1" gradientUnits="userSpaceOnUse" x2="1"/>
<linearGradient gradientTransform="matrix(-1.6,0,0,1.6,461,-683)" id="linearGradient9045" xlink:href="#linearGradient3837-8" y1="1552.5" y2="1555.625" x1="187.5" gradientUnits="userSpaceOnUse" x2="187.5"/>
<linearGradient gradientTransform="matrix(0,2.625,2.625,0,-102,1600)" xlink:href="#linearGradient3779-3" id="linearGradient1522" y1="2.0625" x1="2" y2="13.96875" gradientUnits="userSpaceOnUse" x2="2"/>
<linearGradient id="linearGradient866" xlink:href="#linearGradient3837-8" y1="1801" y2="1806" x1="145" x2="145" gradientUnits="userSpaceOnUse"/>
<linearGradient gradientTransform="matrix(0,2.625,2.625,0,-102,1600)" xlink:href="#linearGradient3771-9" id="linearGradient1524" y1="2.09375" x1="14" y2="14" gradientUnits="userSpaceOnUse" x2="14.0625"/>
<linearGradient gradientTransform="matrix(0,2.625,2.625,0,-102,1600)" xlink:href="#linearGradient3771-9" id="linearGradient1520" y1="2.09375" x1="14" y2="14" gradientUnits="userSpaceOnUse" x2="14"/>
<linearGradient id="linearGradient9103">
<stop offset="0" style="stop-color:#696969"/>
<stop offset="1" style="stop-color:#5f5f5f"/>
</linearGradient>
<linearGradient id="linearGradient4076">
<stop offset="0" style="stop-color:#5a5a5a"/>
<stop offset="1" style="stop-color:#4b4b4b"/>
</linearGradient>
<linearGradient id="linearGradient1135">
<stop offset="0" style="stop-color:#505050"/>
<stop offset="1" style="stop-color:#323232"/>
</linearGradient>
<linearGradient gradientTransform="matrix(0.28125,0,0,0.28125,-47.67187,-464.625)" xlink:href="#linearGradient7460" id="linearGradient6452" y1="1700" x1="262.5" y2="1700" x2="265.49997" gradientUnits="userSpaceOnUse"/>
<linearGradient id="linearGradient1127">
<stop offset="0" style="stop-color:#8e8e8e"/>
<stop offset="1" style="stop-color:#555"/>
</linearGradient>
<linearGradient id="linearGradient7460">
<stop offset="0" style="stop-color:#0a0a0a"/>
<stop offset="1" style="stop-color:#8c8c8c"/>
</linearGradient>
<linearGradient gradientTransform="matrix(0.5625,0,0,0.5625,13.5,-140.0625)" xlink:href="#linearGradient4489" id="linearGradient4491" y1="273" x1="0" y2="249" x2="0" gradientUnits="userSpaceOnUse"/>
<linearGradient id="linearGradient4489">
<stop offset="0" style="stop-color:#3d3d3e"/>
<stop offset="0.85" style="stop-color:#3d3d3e"/>
<stop offset="1" style="stop-color:#636365"/>
</linearGradient>
<linearGradient gradientTransform="matrix(0,2.625,2.625,0,-102,1600)" xlink:href="#linearGradient3779-3" id="linearGradient1526" y1="2.0625" x1="2" y2="13.96875" gradientUnits="userSpaceOnUse" x2="2"/>
<linearGradient id="linearGradient3837-8">
<stop offset="0"/>
<stop offset="1" style="stop-opacity:0"/>
</linearGradient>
<linearGradient gradientTransform="matrix(0.73828125,0,0,0.73828125,12.851192,-12.023441)" id="linearGradient8333" xlink:href="#linearGradient9103" y1="2" y2="2" x1="2" x2="14.021666" gradientUnits="userSpaceOnUse"/>
<linearGradient gradientTransform="matrix(1.6,0,0,-1.6,-155,4309)" id="linearGradient867" xlink:href="#linearGradient3837-8" y1="1555" y2="1555" x1="185" x2="187.8125" gradientUnits="userSpaceOnUse"/>
<linearGradient gradientTransform="matrix(-1.6,0,0,1.6,461,-683)" id="linearGradient850" xlink:href="#linearGradient9211" y1="1555" y2="1555" x1="185" x2="187.5" gradientUnits="userSpaceOnUse"/>
<linearGradient gradientTransform="matrix(-1.6,0,0,-1.6,461,4309)" id="linearGradient859" xlink:href="#linearGradient9211" y1="1552.5" y2="1555" x1="187.5" x2="187.5" gradientUnits="userSpaceOnUse"/>
<linearGradient id="linearGradient858" xlink:href="#linearGradient3837-8" y1="1803" y2="1803" x1="141" gradientUnits="userSpaceOnUse" x2="145"/>
<linearGradient id="linearGradient7832">
<stop offset="0" style="stop-color:#808080"/>
<stop offset="1" style="stop-color:#484848"/>
</linearGradient>
<linearGradient gradientTransform="matrix(0,2.625,2.625,0,-102,1600)" xlink:href="#linearGradient3779-3" id="linearGradient1528" y1="2.0625" x1="2" y2="13.96875" gradientUnits="userSpaceOnUse" x2="2"/>
<linearGradient gradientTransform="matrix(0.28125,0,0,0.28125,-56.53125,-187.31251)" id="linearGradient7005" xlink:href="#linearGradient7832" y1="675" y2="705" x1="210" x2="210" gradientUnits="userSpaceOnUse"/>
<linearGradient gradientTransform="matrix(0,2.625,2.625,0,-102,1600)" xlink:href="#linearGradient3771-9" id="linearGradient1530" y1="2" x1="14" y2="14" gradientUnits="userSpaceOnUse" x2="14"/>
<linearGradient id="linearGradient3779-3">
<stop offset="0" style="stop-color:#666"/>
<stop offset="1" style="stop-color:#4a4a4a"/>
</linearGradient>
<linearGradient id="linearGradient3771-9">
<stop offset="0" style="stop-color:#474747"/>
<stop offset="1" style="stop-color:#313131"/>
</linearGradient>
<linearGradient gradientTransform="matrix(0.73828125,0,0,0.73828125,0.21093694,-12.023455)" id="linearGradient8234" xlink:href="#linearGradient4076" y1="2" y2="2" x1="2" x2="14" gradientUnits="userSpaceOnUse"/>
</defs>
<rect width="13.5" x="0" y="13.5" height="13.5" style="opacity:.935;fill:#3d3d3f" id="window-normal"/>
<rect width="13.5" x="13.5" y="0" height="13.5" style="opacity:.3;fill:url(#linearGradient4491)" id="common-normal"/>
<path style="opacity:.03;fill:#323232" id="window-normal-pattern" d="m 16.875,17.1562 v 0.29498 c 0.09024,-0.0739 0.155604,-0.17531 0.18457,-0.29498 z  m .6076,0 c 0.07431,0.37207 -0.241214,0.76115 -0.607545,0.82837 v 0.32189 c 0.05278,0.0107 0.104991,0.0264 0.156007,0.0538 0.607182,0.32498 1.15332,-0.22118 0.828368,-0.82837 -0.06532,-0.12206 -0.0783,-0.25138 -0.05548,-0.37572 z  m .8547,0 c -0.14272,0.17446 -0.180205,0.44108 -0.02966,0.72236 0.285089,0.53272 -0.3973,1.21509 -0.93,0.92998 -0.180278,-0.0965 -0.354369,-0.11497 -0.502625,-0.0791 v 2.23734 c 0.202067,-0.16537 0.279867,-0.4723 0.105469,-0.79816 -0.285092,-0.53269 0.396748,-1.21452 0.929444,-0.92945 0.607182,0.32499 1.15332,-0.22117 0.828369,-0.82836 -0.285089,-0.53269 0.396748,-1.21452 0.929444,-0.92945 0.426842,0.22846 0.822518,0.0258 0.90747,-0.32518 z  m 3.5156,0 c -0.14272,0.17446 -0.180205,0.44108 -0.02966,0.72236 0.285092,0.53272 -0.3973,1.21509 -0.93,0.92998 -0.607182,-0.32495 -1.15277,0.22067 -0.82782,0.82784 0.285089,0.53271 -0.397296,1.21508 -0.93,0.92998 -0.60718,-0.32496 -1.15278,0.22066 -0.82782,0.82783 0.285089,0.53271 -0.3973,1.21508 -0.93,0.92998 -0.180278,-0.0965 -0.354369,-0.11495 -0.502625,-0.0791 v 1.94237 h 0.182374 c 0.03675,-0.14822 0.01994,-0.32223 -0.0769,-0.50318 -0.285092,-0.53269 0.396748,-1.21453 0.929444,-0.92945 0.607182,0.32498 1.15332,-0.22118 0.828369,-0.82837 -0.285089,-0.53268 0.396748,-1.21452 0.929444,-0.92944 0.607182,0.32498 1.15332,-0.22118 0.828368,-0.82837 -0.285089,-0.53269 0.396748,-1.21452 0.929444,-0.92945 0.376825,0.20169 0.812911,0.066 0.899781,-0.28012 0.03977,-0.15846 0.0088,-0.39836 -0.07141,-0.54824 -0.285092,-0.53269 0.396751,-1.21452 0.929444,-0.92945 0.282299,0.15109 0.54887,0.11126 0.722899,-0.0329 v -0.29225 z  m -.8547,0 c 0.09898,0.49818 -0.502315,1.03059 -0.983826,0.77288 -0.607182,-0.32496 -1.15277,0.22067 -0.82782,0.82783 0.285092,0.53271 -0.3973,1.21508 -0.93,0.92998 -0.607185,-0.32496 -1.15277,0.22067 -0.82782,0.82783 0.219769,0.41065 -0.135422,0.90816 -0.553711,0.98491 v 0.32189 c 0.05278,0.0107 0.104991,0.0264 0.156007,0.0538 0.607182,0.32499 1.15332,-0.22117 0.828368,-0.82836 -0.285089,-0.53269 0.396748,-1.21453 0.929444,-0.92945 0.607182,0.32498 1.15332,-0.22117 0.828369,-0.82837 -0.174159,-0.32543 -0.0073,-0.7131 0.401,-0.93164 0.213669,-0.11435 0.311825,-0.11404 0.528444,0.003 0.607182,0.32496 1.15332,-0.22064 0.828368,-0.82783 -0.06532,-0.12206 -0.0783,-0.25195 -0.05548,-0.37626 z  m 2.2022,.6767 c -0.451465,-0.0219 -0.762252,0.43062 -0.498229,0.92396 0.285092,0.53271 -0.397296,1.21508 -0.93,0.92998 -0.607183,-0.32496 -1.15277,0.22067 -0.82782,0.82783 0.285092,0.53272 -0.397297,1.21509 -0.93,0.92998 -0.607182,-0.32495 -1.15277,0.22067 -0.82782,0.82783 0.285092,0.53272 -0.397299,1.21509 -0.93,0.92998 -0.607185,-0.32495 -1.15277,0.22067 -0.82782,0.82784 0.02738,0.0512 0.04606,0.10364 0.05658,0.15654 h 0.318602 c 0.07664,-0.4183 0.57424,-0.77352 0.984927,-0.55373 0.607182,0.32499 1.15332,-0.22117 0.828368,-0.82836 -0.174158,-0.32544 -0.0073,-0.71311 0.401001,-0.93164 0.213668,-0.11436 0.311824,-0.11405 0.528443,0.003 0.607182,0.32496 1.15332,-0.22064 0.828369,-0.82783 -0.285092,-0.53268 0.396751,-1.21505 0.929444,-0.92998 0.607182,0.32496 1.15332,-0.22064 0.828368,-0.82783 -0.257791,-0.48167 0.27513,-1.08335 0.773438,-0.98381 v -0.3208 c -0.124271,0.023 -0.254022,0.009 -0.376282,-0.0566 -0.113847,-0.0609 -0.225405,-0.0911 -0.329591,-0.0961 z  m .7059,.8965 c -0.350975,0.0849 -0.553638,0.47953 -0.325195,0.90638 0.285089,0.53272 -0.3973,1.21509 -0.93,0.93 -0.607182,-0.32496 -1.15277,0.22066 -0.82782,0.82783 0.285092,0.53271 -0.397296,1.21508 -0.93,0.92998 -0.607182,-0.32496 -1.15277,0.22067 -0.82782,0.82783 0.285089,0.53272 -0.397297,1.21508 -0.93,0.92998 -0.325974,-0.17446 -0.632857,-0.0967 -0.798156,0.10547 h 2.23737 c 0.03594,-0.14833 0.01799,-0.32279 -0.07855,-0.50318 -0.285089,-0.53269 0.396748,-1.21453 0.929444,-0.92945 0.149872,0.0802 0.389753,0.11121 0.548218,0.0714 0.346112,-0.0869 0.481821,-0.52299 0.28015,-0.89981 -0.285092,-0.53268 0.396751,-1.21452 0.929444,-0.92944 0.281279,0.15055 0.548427,0.11252 0.7229,-0.0302 z  m -.7059,2.6191 c -0.451465,-0.0219 -0.762252,0.43062 -0.498229,0.92396 0.285092,0.53272 -0.397296,1.21509 -0.93,0.92998 -0.607183,-0.32495 -1.15277,0.22067 -0.82782,0.82784 0.0273,0.051 0.0433,0.10375 0.05383,0.15654 h 0.321347 c 0.07664,-0.4183 0.57424,-0.77352 0.984927,-0.55373 0.607182,0.32499 1.15332,-0.2212 0.828368,-0.82836 -0.257799,-0.48167 0.275116,-1.08287 0.773438,-0.98328 v -0.32133 c -0.124344,0.0228 -0.254217,0.01 -0.376282,-0.0555 -0.113847,-0.0609 -0.225405,-0.0911 -0.329591,-0.0961 z  m .7059,.8965 c -0.350975,0.0849 -0.553638,0.47953 -0.325195,0.90638 0.285089,0.53272 -0.3973,1.21508 -0.93,0.92998 -0.325974,-0.17446 -0.632857,-0.0967 -0.798156,0.10547 h 2.05334 z "/>
<rect width="0.84375" x="26.15625" y="13.5" height="2.8125" style="opacity:.35;fill:url(#linearGradient6452)" id="header-separator"/>
<g id="scrollbarslider-normal-left" transform="matrix(0.32142857,0,0,0.28125,32.785713,-462.02345)">
<path style="fill:#787878" d="m -98.0625,1605.25 0,31.5 h 1.31249 v -31.5 z "/>
<path style="opacity:.001" d="m -102,1605.25 v 31.5 h 3.9375 v -31.5 z "/>
</g>
<g id="scrollbarslider-normal-bottom" transform="matrix(0.28125,0,0,0.32142857,28.898437,-527.78571)">
<g>
<path style="fill:url(#linearGradient1530)" d="m -96.75,1636.75 v 1.3125 h 31.5 v -1.3125 z"/>
<path style="opacity:.001" d="M -96.75,1638.0625 V 1642 h 31.5 v -3.9375 z"/>
</g>
</g>
<g id="scrollbarslider-normal-right" transform="matrix(0.32142857,0,0,0.28125,31.520089,-462.02344)">
<path style="fill:#313131" d="m -65.25,1605.25 v 31.5 h 1.3125 v -31.5 z "/>
<path style="opacity:.001" d="m -63.9375,1605.25 0,31.5 h 3.9375 v -31.5 z "/>
</g>
<g id="scrollbarslider-normal-top" transform="matrix(0.28125,0,0,0.32142639,28.898437,-526.5166)">
<g>
<path style="fill:url(#linearGradient1528)" d="m -96.75,1603.9375 v 1.3125 h 31.5 v -1.3125 z"/>
<path style="opacity:.001" d="m -96.75,1600 v 3.9375 h 31.5 V 1600 Z"/>
</g>
</g>
<g id="scrollbarslider-normal-topleft" transform="matrix(0.31990521,0,0,0.32142639,32.63033,-526.51661)">
<path style="opacity:.001" d="m -102,1600 3.956256,3.9375 H -96.75 V 1600 Z"/>
<path style="opacity:.001" d="m -102,1600 v 5.25 h 3.95626 v -1.3125 z "/>
<path style="fill:url(#linearGradient1526)" d="m -98.0437,1603.9375 1.2687,1.3125 h 0.05 v -1.3125 z "/>
<path style="fill:#787878" d="m -98.0437,1603.9375 v 1.3125 h 1.29374 Z "/>
</g>
<g id="scrollbarslider-normal-bottomleft" transform="matrix(0.32142857,0,0,0.32142857,32.785714,-527.78572)">
<path style="opacity:.001" d="m -102,1636.75 v 5.25 l 3.9375,-3.9375 v -1.3125 z "/>
<path style="opacity:.001" d="M -98.062501,1638.0625 -102,1642 h 5.25 v -3.9375 z"/>
<path style="fill:#787878" d="m -98.0625,1636.75 0,1.3125 1.3125,-1.3125 z "/>
<path style="fill:url(#linearGradient1524)" d="m -96.75,1636.75 -1.3125,1.3125 h 1.3125 Z "/>
</g>
<g id="scrollbarslider-normal-topright" transform="matrix(0.32142857,0,0,0.32142639,31.520089,-526.5166)">
<path style="opacity:.001" d="m -65.25,1600 v 3.9375 h 1.312499 L -60,1600 Z"/>
<path style="opacity:.001" d="m -60,1600 -3.937501,3.9375 v 1.3125 H -60 Z"/>
<path style="fill:url(#linearGradient1522)" d="m -65.25,1603.9375 v 1.3125 l 1.3125,-1.3125 z "/>
<path style="fill:#313131" d="m -63.9375,1603.9375 -1.3125,1.3125 h 1.3125 z "/>
</g>
<g id="scrollbarslider-normal-bottomright" transform="matrix(0.32142857,0,0,0.32142857,31.520089,-527.78571)">
<path style="opacity:.001" d="M -65.25,1638.0625 V 1642 H -60 l -3.937501,-3.9375 z"/>
<path style="opacity:.001" d="m -63.937501,1636.75 v 1.3125 L -60,1642 v -5.25 z"/>
<path style="fill:url(#linearGradient1520)" d="m -65.25,1636.75 v 1.3125 h 1.3125 z "/>
<path style="fill:#313131" d="m -65.25,1636.75 1.3125,1.3125 v -1.3125 z "/>
</g>
<rect width="8.859375" x="1.6874981" y="-10.546885" height="8.859375" style="fill:url(#linearGradient8234);fill-rule:evenodd" id="scrollbarslider-normal"/>
<rect width="8.859375" x="14.327753" y="-10.546878" height="8.859375" style="fill:url(#linearGradient8333);fill-rule:evenodd" id="scrollbarslider-focused"/>
<use width="450" height="1380" id="scrollbarslider-focused-left" xlink:href="#scrollbarslider-normal-left" transform="translate(12.656249,0)"/>
<use width="450" height="1380" id="scrollbarslider-focused-bottom" xlink:href="#scrollbarslider-normal-bottom" transform="translate(12.640254,0)"/>
<use width="450" height="1380" id="scrollbarslider-focused-right" xlink:href="#scrollbarslider-normal-right" transform="translate(12.640254)"/>
<use width="450" height="1380" id="scrollbarslider-focused-top" xlink:href="#scrollbarslider-normal-top" transform="translate(12.656249,0)"/>
<use width="450" height="1380" id="scrollbarslider-focused-topleft" xlink:href="#scrollbarslider-normal-topleft" transform="translate(12.65625,0)"/>
<use width="450" height="1380" id="scrollbarslider-focused-bottomleft" xlink:href="#scrollbarslider-normal-bottomleft" transform="translate(12.65625,0)"/>
<use width="450" height="1380" id="scrollbarslider-focused-topright" xlink:href="#scrollbarslider-normal-topright" transform="translate(12.65625,0)"/>
<use width="450" height="1380" id="scrollbarslider-focused-bottomright" xlink:href="#scrollbarslider-normal-bottomright" transform="translate(12.640253,0)"/>
<g id="toolbar-normal-top" transform="matrix(0.28125,0,0,0.28125,-56.53125,-187.31251)">
<path style="opacity:.5;fill:#d0d0d0" d="m 210,672 v 3 h 30 v -3 z"/>
<path style="opacity:.01" d="m 210,669 v 3 h 30 v -3 z"/>
<path style="opacity:.01" d="m 210,666 v 3 h 30 v -3 z"/>
</g>
<g id="toolbar-normal-bottom" transform="matrix(0.28125,0,0,0.28125,-56.53125,-187.31251)">
<path style="opacity:.5" d="m 210,708 v 3 h 30 v -3 z"/>
<path style="opacity:.2" d="m 210,711 v 3 h 30 v -3 z"/>
<path style="opacity:.5;fill:#242424" d="m 210,705 v 3 h 30 v -3 z"/>
</g>
<path style="opacity:.5;fill:url(#linearGradient7005);stroke-width:1" id="toolbar-normal" d="m 2.5312,2.5312 h 8.4375 v 8.4375 h -8.4375 z "/>
<path style="opacity:.3;fill:url(#linearGradient8841);stroke-width:1" id="common-normal-left" d="m 27.8438,1.125 h 1.125 v 4.5 h -1.125 z "/>
<path style="opacity:.12;fill:url(#linearGradient9096);stroke-width:1" id="common-normal-right" d="m 34.5938,1.125 h -1.125 v 4.5 h 1.125 z "/>
<path style="opacity:.15;fill:url(#linearGradient9129);stroke-width:1" id="common-normal-bottom" d="M 33.46875,6.75 V 5.625 h -4.5 V 6.75 Z"/>
<path style="opacity:.4;fill:url(#linearGradient9145);stroke-width:1" id="common-normal-top" d="m 33.46875,0 v 1.125 h -4.5 V 0 Z"/>
<g id="common-normal-topleft" transform="matrix(0.28125,0,0,0.28125,-11.8125,-506.53125)">
<path style="opacity:.3;fill:url(#linearGradient858)" d="m 141,1805 a 4,4 0 0 1 4,-4 v 4 z"/>
<path style="opacity:.4;fill:url(#linearGradient866)" d="m 141,1805 a 4,4 0 0 1 4,-4 v 4 z"/>
</g>
<g id="common-normal-topright" transform="matrix(0.28125,0,0,0.28125,-11.8125,-506.53125)">
<path style="opacity:.4;fill:url(#linearGradient9045)" d="m 165,1805 a 4,4 0 0 0 -4,-4 v 4 z"/>
<path style="opacity:.12;fill:url(#linearGradient850)" d="m 165,1805 a 4,4 0 0 0 -4,-4 v 4 z"/>
</g>
<g id="common-normal-bottomright" transform="matrix(0.28125,0,0,0.28125,-11.8125,-506.53125)">
<path style="opacity:.12;fill:url(#linearGradient9177)" d="m 165,1821 a 4,4 0 0 1 -4,4 v -4 z"/>
<path style="opacity:.15;fill:url(#linearGradient859)" d="m 165,1821 a 4,4 0 0 1 -4,4 v -4 z"/>
</g>
<g id="common-normal-bottomleft" transform="matrix(0.28125,0,0,0.28125,-11.8125,-506.53125)">
<path style="opacity:.15;fill:url(#linearGradient9231)" d="m 141,1821 a 4,4 0 0 0 4,4 v -4 z"/>
<path style="opacity:.3;fill:url(#linearGradient867)" d="m 141,1821 a 4,4 0 0 0 4,4 v -4 z"/>
</g>
<g id="toolbar-normal-left" transform="matrix(0.28125,0,0,0.28125,-56.53125,-187.31251)">
<path style="opacity:.5;fill:url(#linearGradient1129)" d="m 207,675 v 30 h 3 v -30 z"/>
<path style="opacity:.5;fill:url(#linearGradient1070)" d="m 204,675 v 30 h 3 v -30 z"/>
<path style="opacity:.1;fill:url(#linearGradient1072)" d="m 201,675 v 30 h 3 v -30 z"/>
</g>
<g id="toolbar-normal-topleft" transform="matrix(0.28125,0,0,0.28125,-56.53125,-187.31251)">
<path style="opacity:.22;fill:url(#linearGradient6975)" d="m 201,666 v 9 h 3 v -6 z"/>
<path style="opacity:.5;fill:url(#linearGradient1074)" d="m 204,669 v 6 h 3 v -3 z"/>
<path style="opacity:.5;fill:#8e8e8e" d="m 207,672 v 3 h 3 z"/>
<path style="opacity:.5;fill:#d0d0d0" d="m 207,672 3,3 v -3 z"/>
<path style="opacity:.01" d="m 204,669 3,3 h 3 v -3 z"/>
<path style="opacity:.01" d="m 201,666 3,3 h 6 v -3 z"/>
</g>
<g id="toolbar-normal-bottomleft" transform="matrix(0.28125,0,0,0.28125,-56.53125,-187.31251)">
<path style="opacity:.5" d="m 207,708 -3,3 h 6 v -3 z"/>
<path style="opacity:.2" d="m 204,711 -3,3 h 9 v -3 z"/>
<path style="opacity:.5;fill:#555" d="m 207,705 v 3 l 3,-3 z"/>
<path style="opacity:.5;fill:url(#linearGradient6983)" d="m 204,705 v 6 l 3,-3 v -3 z"/>
<path style="opacity:.1;fill:url(#linearGradient6985)" d="m 201,705 v 9 l 3,-3 v -6 z"/>
<path style="opacity:.5;fill:#242424" d="m 210,705 -3,3 h 3 z"/>
</g>
<g id="toolbar-normal-bottomright" transform="matrix(0.28125,0,0,0.28125,-56.53125,-187.31251)">
<path style="opacity:.5" d="m 240,708 v 3 h 6 l -3,-3 z"/>
<path style="opacity:.2" d="m 240,711 v 3 h 9 l -3,-3 z"/>
<path style="opacity:.5;fill:url(#linearGradient6987)" d="m 243,705 v 3 l 3,3 v -6 z"/>
<path style="opacity:.1;fill:url(#linearGradient6989)" d="m 246,705 v 6 l 3,3 v -9 z"/>
<path style="opacity:.5;fill:#323232" d="m 240,705 3,3 v -3 z"/>
<path style="opacity:.5;fill:#242424" d="m 240,705 v 3 h 3 z"/>
</g>
<g id="toolbar-normal-topright" transform="matrix(0.28125,0,0,0.28125,-56.53125,-187.31251)">
<path style="opacity:.5;fill:#d0d0d0" d="m 240,672 v 3 l 3,-3 z"/>
<path style="opacity:.01" d="m 240,669 v 3 h 3 l 3,-3 z"/>
<path style="opacity:.01" d="m 240,666 v 3 h 6 l 3,-3 z"/>
<path style="opacity:.5;fill:#505050" d="m 243,672 -3,3 h 3 z"/>
<path style="opacity:.5;fill:url(#linearGradient1080)" d="m 246,669 -3,3 v 3 h 3 z"/>
<path style="opacity:.1;fill:url(#linearGradient1082)" d="m 249,666 -3,3 v 6 h 3 z"/>
</g>
<g id="toolbar-normal-right" transform="matrix(0.28125,0,0,0.28125,-56.53125,-187.31251)">
<path style="opacity:.5;fill:url(#linearGradient1137)" d="m 240,675 v 30 h 3 v -30 z"/>
<path style="opacity:.5;fill:url(#linearGradient7001)" d="m 243,675 v 30 h 3 v -30 z"/>
<path style="opacity:.1;fill:url(#linearGradient7003)" d="m 246,675 v 30 h 3 v -30 z"/>
</g>
<g id="menuitem-normal" transform="matrix(0.28125,0,0,0.28125,-30.9375,-366.46876)">
<g style="fill:url(#linearGradient1061)" transform="matrix(2,0,0,0.66666666,325,1248.0919)">
<path style="opacity:.8;fill:url(#linearGradient1059);fill-rule:evenodd" d="m -59,28.3622 h 15 v 15 h -15 z"/>
</g>
<path style="opacity:.2;fill:url(#linearGradient1063);fill-rule:evenodd" d="m 207,1267 v 1 h 30 v -1 z"/>
</g>
<use width="100%" height="100%" xlink:href="#menuitem-normal" id="menuitem-normal-left" transform="translate(0,2.8125013)"/>
<use width="100%" height="100%" xlink:href="#menuitem-normal" id="menuitem-normal-right" transform="translate(0,5.6250013)"/>
<path style="opacity:.35;paint-order:normal;fill:#fff;fill-rule:evenodd" id="tab-focus-bottomleft" d="m 13.5,13.5 h 1.125 v 1.125 H 13.5 Z"/>
<path style="opacity:.35;paint-order:normal;fill:#fff;fill-rule:evenodd" id="tab-focus-bottom" d="m 14.625,13.5 h 1.125 v 1.125 h -1.125 z"/>
<path style="opacity:.35;paint-order:normal;fill:#fff;fill-rule:evenodd" id="tab-focus-bottomright" d="m 15.75,13.5 h 1.125 v 1.125 H 15.75 Z"/>
</svg>
