<svg width="96" version="1.1" xmlns="http://www.w3.org/2000/svg" height="96" viewBox="0 0 27 27" xmlns:xlink="http://www.w3.org/1999/xlink">
<defs id="defs2">
<linearGradient gradientTransform="matrix(-0.3375,0,0,0.3375,68.625,-523.96875)" id="linearGradient9045" xlink:href="#linearGradient9015" y1="1552.5" y2="1555" x1="187.5" gradientUnits="userSpaceOnUse" x2="185"/>
<linearGradient id="linearGradient8808">
<stop offset="0" style="stop-color:#232323" id="stop8810"/>
<stop offset="1" style="stop-color:#2d2d2d" id="stop8812"/>
</linearGradient>
<linearGradient id="linearGradient9015">
<stop offset="0" style="stop-color:#282828" id="stop9017"/>
<stop offset="1" style="stop-color:#464646" id="stop9019"/>
</linearGradient>
<linearGradient id="linearGradient8928">
<stop offset="0" style="stop-color:#6e6e6e" id="stop8930"/>
<stop offset="0.2" style="stop-color:#5a5a5a" id="stop8801"/>
<stop offset="1" style="stop-color:#323232" id="stop8932"/>
</linearGradient>
<linearGradient id="linearGradient8972">
<stop offset="0" style="stop-color:#191919" id="stop8974"/>
<stop offset="1" style="stop-color:#282828" id="stop8976"/>
</linearGradient>
<linearGradient id="linearGradient8950">
<stop offset="0" style="stop-color:#5a5a5a" id="stop8952"/>
<stop offset="0.2" style="stop-color:#4b4b4b" id="stop8803"/>
<stop offset="1" style="stop-color:#303030" id="stop8954"/>
</linearGradient>
<linearGradient id="linearGradient9211">
<stop offset="0" style="stop-color:#5a5a5a" id="stop9213"/>
<stop offset="1" style="stop-color:#282828" id="stop9215"/>
</linearGradient>
<linearGradient gradientTransform="matrix(0.2109375,0,0,0.28125,-392.48997,59.528512)" id="linearGradient9145" xlink:href="#linearGradient8972" y1="-222.65691" y2="-222.65691" x1="1860.6935" gradientUnits="userSpaceOnUse" x2="1864.6935"/>
<linearGradient id="linearGradient4489">
<stop offset="0" style="stop-color:#3d3d3e" id="stop4485"/>
<stop offset="0.85" style="stop-color:#3d3d3e" id="stop4493"/>
<stop offset="1" style="stop-color:#636365" id="stop4487"/>
</linearGradient>
<linearGradient id="linearGradient7460">
<stop offset="0" style="stop-color:#0a0a0a" id="stop7462"/>
<stop offset="1" style="stop-color:#8c8c8c" id="stop7464"/>
</linearGradient>
<linearGradient gradientTransform="matrix(0.5625,0,0,0.5625,13.5,-140.0625)" xlink:href="#linearGradient4489" id="linearGradient4491" y1="273" x1="0" y2="249" x2="0" gradientUnits="userSpaceOnUse"/>
<linearGradient gradientTransform="matrix(0.3375,0,0,-0.3375,-62.4375,530.15625)" id="linearGradient9231" xlink:href="#linearGradient9211" y1="1552.5" y2="1555" x1="187.5" gradientUnits="userSpaceOnUse" x2="187.5"/>
<linearGradient gradientTransform="matrix(0.2109375,0,0,0.28125,-56.1073,-524.72621)" id="linearGradient9096" xlink:href="#linearGradient8950" y1="1876.6935" y2="1876.6935" x1="236.65685" gradientUnits="userSpaceOnUse" x2="240.65685"/>
<linearGradient gradientTransform="matrix(0.2109375,0,0,0.28125,-404.8594,59.625003)" id="linearGradient9129" xlink:href="#linearGradient8928" y1="-223" y2="-223" x1="1890" gradientUnits="userSpaceOnUse" x2="1894"/>
<linearGradient gradientTransform="matrix(-0.3375,0,0,-0.3375,68.625,530.15625)" id="linearGradient9177" xlink:href="#linearGradient8928" y1="1552.5" y2="1555" x1="185" gradientUnits="userSpaceOnUse" x2="187.5"/>
<linearGradient gradientTransform="matrix(0.2109375,0,0,0.28125,-43.169796,-524.72621)" id="linearGradient8841" xlink:href="#linearGradient8808" y1="1876.6935" y2="1876.6935" x1="204.65685" gradientUnits="userSpaceOnUse" x2="208.65685"/>
<linearGradient gradientTransform="matrix(0.28125,0,0,0.28125,-47.67187,-464.625)" xlink:href="#linearGradient7460" id="linearGradient6452" y1="1705" x1="260" y2="1704.5" x2="267.5" gradientUnits="userSpaceOnUse"/>
<linearGradient id="linearGradient4076">
<stop offset="0" style="stop-color:#5a5a5a" id="stop4078"/>
<stop offset="1" style="stop-color:#4b4b4b" id="stop4080"/>
</linearGradient>
<linearGradient gradientTransform="matrix(0,2.625,2.625,0,-102,1600)" xlink:href="#linearGradient3779-3" id="linearGradient1522" y1="2.0625" x1="2" y2="13.96875" gradientUnits="userSpaceOnUse" x2="2"/>
<linearGradient gradientTransform="matrix(0,2.625,2.625,0,-102,1600)" xlink:href="#linearGradient3771-9" id="linearGradient1524" y1="2.09375" x1="14" y2="14" gradientUnits="userSpaceOnUse" x2="14.0625"/>
<linearGradient id="linearGradient9103">
<stop offset="0" style="stop-color:#696969" id="stop9105"/>
<stop offset="1" style="stop-color:#5f5f5f" id="stop9107"/>
</linearGradient>
<linearGradient gradientTransform="matrix(0,2.625,2.625,0,-102,1600)" xlink:href="#linearGradient3771-9" id="linearGradient1520" y1="2.09375" x1="14" y2="14" gradientUnits="userSpaceOnUse" x2="14"/>
<linearGradient gradientTransform="matrix(0,2.625,2.625,0,-102,1600)" xlink:href="#linearGradient3779-3" id="linearGradient1526" y1="2.0625" x1="2" y2="13.96875" gradientUnits="userSpaceOnUse" x2="2"/>
<linearGradient gradientTransform="matrix(0.73828125,0,0,0.73828125,12.851192,-12.023441)" id="linearGradient8333" xlink:href="#linearGradient9103" y1="2" y2="2" x1="2" x2="14.021666" gradientUnits="userSpaceOnUse"/>
<linearGradient gradientTransform="matrix(0,2.625,2.625,0,-102,1600)" xlink:href="#linearGradient3779-3" id="linearGradient1528" y1="2.0625" x1="2" y2="13.96875" gradientUnits="userSpaceOnUse" x2="2"/>
<linearGradient gradientTransform="matrix(0,2.625,2.625,0,-102,1600)" xlink:href="#linearGradient3771-9" id="linearGradient1530" y1="2" x1="14" y2="14" gradientUnits="userSpaceOnUse" x2="14"/>
<linearGradient gradientTransform="matrix(0.73828125,0,0,0.73828125,0.21093694,-12.023455)" id="linearGradient8234" xlink:href="#linearGradient4076" y1="2" y2="2" x1="2" x2="14" gradientUnits="userSpaceOnUse"/>
<linearGradient id="linearGradient3779-3">
<stop offset="0" style="stop-color:#666" id="stop3781-0"/>
<stop offset="1" style="stop-color:#4a4a4a" id="stop3783-70"/>
</linearGradient>
<linearGradient id="linearGradient3771-9">
<stop offset="0" style="stop-color:#474747" id="stop3773-92"/>
<stop offset="1" style="stop-color:#313131" id="stop3775-15"/>
</linearGradient>
</defs>
<rect width="13.5" x="0" y="13.5" height="13.5" style="opacity:.935;fill:#3d3d3f" id="window-normal"/>
<rect width="13.5" x="13.5" y="0" height="13.5" style="opacity:.3;fill:url(#linearGradient4491)" id="common-normal"/>
<g style="stroke:none">
<g id="common-focused-top">
<rect width="0.84375" x="-5.8565909e-18" y="-5.34375" height="4.5" style="fill:url(#linearGradient9145)" id="common-normal-top0" transform="rotate(90)"/>
<rect width="0.28125" x="-1.1687889e-16" y="-5.34375" height="4.5" style="fill:#2f69a3" id="rect4620" transform="rotate(90)"/>
</g>
<g id="common-focused-topleft">
<path style="fill:#1e1e1e" id="common-normal-topleft0" d="M 0,0.84375 A 0.84375,0.84375 0 0 1 0.84375,0 v 0.84375 z"/>
<path style="fill:#2f69a3" id="b" d="m .8438,0 a 0.84375,0.84375 0 0,0 -0.84375,0.84375 h 0.28125 a 0.5625,0.5625 0 0,1 0.5625,-0.5625 Z "/>
</g>
<g id="common-focused-topright">
<path style="fill:url(#linearGradient9045)" id="common-normal-topright0" d="M 6.1875,0.84375 A 0.84375,0.84375 0 0 0 5.34375,0 v 0.84375 z"/>
<path style="fill:#2f69a3" id="path4525" d="m 6.1875,.8438 a 0.84375,0.84375 0 0,0 -0.84375,-0.84375 v 0.28125 a 0.5625,0.5625 0 0,1 0.5625,0.5625 z "/>
</g>
<g id="common-focused-right">
<rect width="0.84375" x="-6.1875" y="0.84375" height="4.5" style="fill:url(#linearGradient9096)" id="common-normal-right0" transform="scale(-1,1)"/>
<rect width="0.28125" x="-6.1875" y="-5.34375" height="4.5" style="fill:#2f69a3" id="rect4531" transform="scale(-1)"/>
</g>
<g id="common-focused-left">
<rect width="0.84375" x="0" y="0.84375" height="4.5" style="fill:url(#linearGradient8841)" id="common-normal-left0"/>
<rect width="0.28125" x="0" y="0.84375" height="4.5" style="fill:#2f69a3" id="rect4519"/>
</g>
<g id="common-focused-bottomleft">
<path style="fill:url(#linearGradient9231)" id="common-normal-bottomleft0" d="M 0,5.34375 A 0.84375,0.84375 0 0 0 0.84375,6.1875 V 5.34375 Z"/>
<path style="fill:#2f69a3" id="path4513" d="m -0,5.3437 a 0.84375,0.84375 0 0,0 0.84375,0.84375 v -0.28125 a 0.5625,0.5625 0 0,1 -0.5625,-0.5625 Z "/>
</g>
<g id="common-focused-bottom">
<rect width="0.84375" x="-6.1875" y="-5.34375" height="4.5" style="fill:url(#linearGradient9129)" id="common-normal-bottom0" transform="matrix(0,-1,-1,0,0,0)"/>
<rect width="0.28125" x="-6.1875" y="-5.34375" height="4.5" style="fill:#2f69a3" id="rect4543" transform="matrix(0,-1,-1,0,0,0)"/>
</g>
<g id="common-focused-bottomright">
<path style="fill:url(#linearGradient9177)" id="common-normal-bottomright0" d="M 6.1875,5.34375 A 0.84375,0.84375 0 0 1 5.34375,6.1875 V 5.34375 Z"/>
<path style="fill:#2f69a3" id="path4537" d="m 5.3437,6.1875 a 0.84375,0.84375 0 0,0 0.84375,-0.84375 h -0.28125 a 0.5625,0.5625 0 0,1 -0.5625,0.5625 Z "/>
</g>
</g>
<g style="opacity:.01" id="window-normal-pattern" transform="matrix(0.28125,0,0,0.28125,16.875,9)">
<path style="opacity:1;fill:#c0c0c0" id="path5488" d="M 0,30 V 42 L 12,30 Z"/>
<path style="opacity:1;fill:#8c8c8c" id="path5486" d="M 12,30 24,42 V 30 Z"/>
<path style="opacity:1" id="path5484" d="M 24,42 12,54 h 12 z"/>
<path style="opacity:1;fill:#2d2d2d" id="window-normal0" d="M 12,54 0,42 v 12 z"/>
<path style="opacity:1;fill:#c0c0c0" id="path5490" d="M 24,42 12,54 V 42 Z"/>
<path style="opacity:1;fill:#8c8c8c" id="path5492" d="M 0,42 12,54 V 42 Z"/>
<path style="opacity:1" id="path5494" d="M 0,42 12,30 v 12 z"/>
<path style="opacity:1;fill:#2d2d2d" id="path5496" d="M 24,42 12,30 v 12 z"/>
</g>
<rect width="0.84375" x="26.15625" y="13.5" height="2.8125" style="fill:url(#linearGradient6452);stroke:none" id="header-separator"/>
<g style="stroke:none" id="scrollbarslider-normal-left" transform="matrix(0.32142857,0,0,0.28125,32.785713,-462.02345)">
<path style="fill:#787878" id="path8068" d="m -98.0625,1605.25 0,31.5 h 1.31249 v -31.5 z "/>
<path style="opacity:.001" id="path8070" d="m -102,1605.25 v 31.5 h 3.9375 v -31.5 z "/>
</g>
<g id="scrollbarslider-normal-bottom" transform="matrix(0.28125,0,0,0.32142857,28.898437,-527.78571)">
<g style="stroke:none" id="g8074">
<path style="fill:url(#linearGradient1530)" id="path8079" d="m -96.75,1636.75 v 1.3125 h 31.5 v -1.3125 z"/>
<path style="opacity:.001" id="path8081" d="M -96.75,1638.0625 V 1642 h 31.5 v -3.9375 z"/>
</g>
</g>
<g style="stroke:none" id="scrollbarslider-normal-right" transform="matrix(0.32142857,0,0,0.28125,31.520089,-462.02344)">
<path style="fill:#313131" id="path8085" d="m -65.25,1605.25 v 31.5 h 1.3125 v -31.5 z "/>
<path style="opacity:.001" id="path8088" d="m -63.9375,1605.25 0,31.5 h 3.9375 v -31.5 z "/>
</g>
<g id="scrollbarslider-normal-top" transform="matrix(0.28125,0,0,0.32142639,28.898437,-526.5166)">
<g style="stroke:none" id="g8092">
<path style="fill:url(#linearGradient1528)" id="path8094" d="m -96.75,1603.9375 v 1.3125 h 31.5 v -1.3125 z"/>
<path style="opacity:.001" id="path8098" d="m -96.75,1600 v 3.9375 h 31.5 V 1600 Z"/>
</g>
</g>
<g style="stroke:none" id="scrollbarslider-normal-topleft" transform="matrix(0.31990521,0,0,0.32142639,32.63033,-526.51661)">
<path style="opacity:.001" id="path8103" d="m -102,1600 3.956256,3.9375 H -96.75 V 1600 Z"/>
<path style="opacity:.001" id="path8106" d="m -102,1600 v 5.25 h 3.95626 v -1.3125 z "/>
<path style="fill:url(#linearGradient1526)" id="path8110" d="m -98.0437,1603.9375 1.2687,1.3125 h 0.05 v -1.3125 z "/>
<path style="fill:#787878" id="path8112" d="m -98.0437,1603.9375 v 1.3125 h 1.29374 Z "/>
</g>
<g style="stroke:none" id="scrollbarslider-normal-bottomleft" transform="matrix(0.32142857,0,0,0.32142857,32.785714,-527.78572)">
<path style="opacity:.001" id="path8116" d="m -102,1636.75 v 5.25 l 3.9375,-3.9375 v -1.3125 z "/>
<path style="opacity:.001" id="path8118" d="M -98.062501,1638.0625 -102,1642 h 5.25 v -3.9375 z"/>
<path style="fill:#787878" id="path8144" d="m -98.0625,1636.75 0,1.3125 1.3125,-1.3125 z "/>
<path style="fill:url(#linearGradient1524)" id="path8157" d="m -96.75,1636.75 -1.3125,1.3125 h 1.3125 Z "/>
</g>
<g style="stroke:none" id="scrollbarslider-normal-topright" transform="matrix(0.32142857,0,0,0.32142639,31.520089,-526.5166)">
<path style="opacity:.001" id="path8163" d="m -65.25,1600 v 3.9375 h 1.312499 L -60,1600 Z"/>
<path style="opacity:.001" id="path8170" d="m -60,1600 -3.937501,3.9375 v 1.3125 H -60 Z"/>
<path style="fill:url(#linearGradient1522)" id="path8183" d="m -65.25,1603.9375 v 1.3125 l 1.3125,-1.3125 z "/>
<path style="fill:#313131" id="path8186" d="m -63.9375,1603.9375 -1.3125,1.3125 h 1.3125 z "/>
</g>
<g style="stroke:none" id="scrollbarslider-normal-bottomright" transform="matrix(0.32142857,0,0,0.32142857,31.520089,-527.78571)">
<path style="opacity:.001" id="path8193" d="M -65.25,1638.0625 V 1642 H -60 l -3.937501,-3.9375 z"/>
<path style="opacity:.001" id="path8195" d="m -63.937501,1636.75 v 1.3125 L -60,1642 v -5.25 z"/>
<path style="fill:url(#linearGradient1520)" id="path8197" d="m -65.25,1636.75 v 1.3125 h 1.3125 z "/>
<path style="fill:#313131" id="path8199" d="m -65.25,1636.75 1.3125,1.3125 v -1.3125 z "/>
</g>
<g style="fill-rule:evenodd;stroke:none">
<rect width="8.859375" x="1.6874981" y="-10.546885" height="8.859375" style="fill:url(#linearGradient8234)" id="scrollbarslider-normal"/>
<rect width="8.859375" x="14.327753" y="-10.546878" height="8.859375" style="fill:url(#linearGradient8333)" id="scrollbarslider-focused"/>
</g>
<use width="450" x="0" y="0" height="1380" id="scrollbarslider-focused-left" xlink:href="#scrollbarslider-normal-left" transform="translate(12.656249,0)"/>
<use width="450" x="0" y="0" height="1380" id="scrollbarslider-focused-bottom" xlink:href="#scrollbarslider-normal-bottom" transform="translate(12.640254,0)"/>
<use width="450" x="0" y="0" height="1380" id="scrollbarslider-focused-right" xlink:href="#scrollbarslider-normal-right" transform="translate(12.640254)"/>
<use width="450" x="0" y="0" height="1380" id="scrollbarslider-focused-top" xlink:href="#scrollbarslider-normal-top" transform="translate(12.656249,0)"/>
<use width="450" x="0" y="0" height="1380" id="scrollbarslider-focused-topleft" xlink:href="#scrollbarslider-normal-topleft" transform="translate(12.65625,0)"/>
<use width="450" x="0" y="0" height="1380" id="scrollbarslider-focused-bottomleft" xlink:href="#scrollbarslider-normal-bottomleft" transform="translate(12.65625,0)"/>
<use width="450" x="0" y="0" height="1380" id="scrollbarslider-focused-topright" xlink:href="#scrollbarslider-normal-topright" transform="translate(12.65625,0)"/>
<use width="450" x="0" y="0" height="1380" id="scrollbarslider-focused-bottomright" xlink:href="#scrollbarslider-normal-bottomright" transform="translate(12.640253,0)"/>
</svg>
