<svg width="96" version="1.1" xmlns="http://www.w3.org/2000/svg" height="96" viewBox="0 0 27 27" xmlns:xlink="http://www.w3.org/1999/xlink">
<defs>
<linearGradient gradientTransform="matrix(-1.6,0,0,-1.6,461,4309)" id="linearGradient859" xlink:href="#linearGradient9211" y1="1552.5" y2="1555" x1="187.5" x2="187.5" gradientUnits="userSpaceOnUse"/>
<linearGradient gradientTransform="matrix(-1.6,0,0,1.6,461,-683)" id="linearGradient850" xlink:href="#linearGradient9211" y1="1555" y2="1555" x1="185" x2="187.5" gradientUnits="userSpaceOnUse"/>
<linearGradient gradientTransform="matrix(1.6,0,0,-1.6,-155,4309)" id="linearGradient9231" xlink:href="#linearGradient9211" y1="1552.5" y2="1555" x1="187.5" gradientUnits="userSpaceOnUse" x2="187.5"/>
<linearGradient id="linearGradient858" xlink:href="#linearGradient3837-8" y1="1803" y2="1803" x1="141" gradientUnits="userSpaceOnUse" x2="145"/>
<linearGradient id="linearGradient3837-8">
<stop offset="0"/>
<stop offset="1" style="stop-opacity:0"/>
</linearGradient>
<linearGradient id="linearGradient7832">
<stop offset="0" style="stop-color:#808080"/>
<stop offset="1" style="stop-color:#484848"/>
</linearGradient>
<linearGradient gradientTransform="matrix(1.6,0,0,-1.6,-155,4309)" id="linearGradient867" xlink:href="#linearGradient3837-8" y1="1555" y2="1555" x1="185" x2="187.8125" gradientUnits="userSpaceOnUse"/>
<linearGradient id="linearGradient866" xlink:href="#linearGradient3837-8" y1="1801" y2="1806" x1="145" x2="145" gradientUnits="userSpaceOnUse"/>
<linearGradient gradientTransform="matrix(-0.28125,0,0,0.28125,101.15349,-524.44497)" id="linearGradient9096" xlink:href="#linearGradient9211" y1="1876.6935" y2="1876.6935" x1="236.65685" gradientUnits="userSpaceOnUse" x2="240.65685"/>
<linearGradient gradientTransform="matrix(-1.6,0,0,-1.6,461,4309)" id="linearGradient9177" xlink:href="#linearGradient9211" y1="1555" y2="1555" x1="185" gradientUnits="userSpaceOnUse" x2="187.5"/>
<linearGradient gradientTransform="matrix(-1.6,0,0,1.6,461,-683)" id="linearGradient9045" xlink:href="#linearGradient3837-8" y1="1552.5" y2="1555.625" x1="187.5" gradientUnits="userSpaceOnUse" x2="187.5"/>
<linearGradient gradientTransform="matrix(0,0.28125,-0.28125,0,-31.403516,-523.31997)" id="linearGradient9145" xlink:href="#linearGradient3837-8" y1="-222.65691" y2="-222.65695" x1="1860.6935" gradientUnits="userSpaceOnUse" x2="1865.6932"/>
<linearGradient gradientTransform="matrix(0.28125,0,0,0.28125,-29.715988,-524.44497)" id="linearGradient8841" xlink:href="#linearGradient3837-8" y1="1876.6935" y2="1876.6932" x1="204.65685" gradientUnits="userSpaceOnUse" x2="209.65685"/>
<linearGradient gradientTransform="matrix(0,-0.28125,-0.28125,0,-31.5,538.3125)" id="linearGradient9129" xlink:href="#linearGradient9211" y1="-223" y2="-223" x1="1890" gradientUnits="userSpaceOnUse" x2="1894"/>
<linearGradient id="linearGradient9211">
<stop offset="0" style="stop-color:#fff"/>
<stop offset="1" style="stop-color:#fff;stop-opacity:0"/>
</linearGradient>
<linearGradient gradientTransform="matrix(0.28125,0,0,0.28125,-56.53125,-187.31251)" id="linearGradient7005" xlink:href="#linearGradient7832" y1="675" y2="705" x1="210" x2="210" gradientUnits="userSpaceOnUse"/>
<linearGradient gradientTransform="matrix(0,2.625,2.625,0,-102,1600)" xlink:href="#linearGradient3779-3" id="linearGradient1522" y1="2.0625" x1="2" y2="13.96875" gradientUnits="userSpaceOnUse" x2="2"/>
<linearGradient id="linearGradient4076">
<stop offset="0" style="stop-color:#5a5a5a"/>
<stop offset="1" style="stop-color:#4b4b4b"/>
</linearGradient>
<linearGradient id="linearGradient3771-9">
<stop offset="0" style="stop-color:#474747"/>
<stop offset="1" style="stop-color:#313131"/>
</linearGradient>
<linearGradient gradientTransform="matrix(0.28125,0,0,0.28125,-47.67187,-464.625)" xlink:href="#linearGradient7460" id="linearGradient6452" y1="1705" x1="260" y2="1704.5" x2="267.5" gradientUnits="userSpaceOnUse"/>
<linearGradient id="linearGradient7460">
<stop offset="0" style="stop-color:#0a0a0a"/>
<stop offset="1" style="stop-color:#8c8c8c"/>
</linearGradient>
<linearGradient id="linearGradient4489">
<stop offset="0" style="stop-color:#3d3d3e"/>
<stop offset="0.85" style="stop-color:#3d3d3e"/>
<stop offset="1" style="stop-color:#636365"/>
</linearGradient>
<linearGradient gradientTransform="matrix(0.5625,0,0,0.5625,13.5,-140.0625)" xlink:href="#linearGradient4489" id="linearGradient4491" y1="273" x1="0" y2="249" x2="0" gradientUnits="userSpaceOnUse"/>
<linearGradient gradientTransform="matrix(0,2.625,2.625,0,-102,1600)" xlink:href="#linearGradient3771-9" id="linearGradient1524" y1="2.09375" x1="14" y2="14" gradientUnits="userSpaceOnUse" x2="14.0625"/>
<linearGradient id="linearGradient3779-3">
<stop offset="0" style="stop-color:#666"/>
<stop offset="1" style="stop-color:#4a4a4a"/>
</linearGradient>
<linearGradient gradientTransform="matrix(0.73828125,0,0,0.73828125,0.21093694,-12.023455)" id="linearGradient8234" xlink:href="#linearGradient4076" y1="2" y2="2" x1="2" x2="14" gradientUnits="userSpaceOnUse"/>
<linearGradient id="linearGradient9103">
<stop offset="0" style="stop-color:#696969"/>
<stop offset="1" style="stop-color:#5f5f5f"/>
</linearGradient>
<linearGradient gradientTransform="matrix(0,2.625,2.625,0,-102,1600)" xlink:href="#linearGradient3771-9" id="linearGradient1530" y1="2" x1="14" y2="14" gradientUnits="userSpaceOnUse" x2="14"/>
<linearGradient gradientTransform="matrix(0,2.625,2.625,0,-102,1600)" xlink:href="#linearGradient3779-3" id="linearGradient1528" y1="2.0625" x1="2" y2="13.96875" gradientUnits="userSpaceOnUse" x2="2"/>
<linearGradient gradientTransform="matrix(0,2.625,2.625,0,-102,1600)" xlink:href="#linearGradient3771-9" id="linearGradient1520" y1="2.09375" x1="14" y2="14" gradientUnits="userSpaceOnUse" x2="14"/>
<linearGradient gradientTransform="matrix(0.73828125,0,0,0.73828125,12.851192,-12.023441)" id="linearGradient8333" xlink:href="#linearGradient9103" y1="2" y2="2" x1="2" x2="14.021666" gradientUnits="userSpaceOnUse"/>
<linearGradient gradientTransform="matrix(0,2.625,2.625,0,-102,1600)" xlink:href="#linearGradient3779-3" id="linearGradient1526" y1="2.0625" x1="2" y2="13.96875" gradientUnits="userSpaceOnUse" x2="2"/>
</defs>
<rect width="13.5" x="0" y="13.5" height="13.5" style="opacity:.935;fill:#3d3d3f" id="window-normal"/>
<rect width="13.5" x="13.5" y="0" height="13.5" style="opacity:.3;fill:url(#linearGradient4491)" id="common-normal"/>
<g style="opacity:.005" id="window-normal-pattern" transform="matrix(0.28125,0,0,0.28125,16.875,9)">
<path style="opacity:1;fill:#c0c0c0" d="M 0,30 V 42 L 12,30 Z"/>
<path style="opacity:1;fill:#8c8c8c" d="M 12,30 24,42 V 30 Z"/>
<path style="opacity:1" d="M 24,42 12,54 h 12 z"/>
<path style="opacity:1;fill:#2d2d2d" d="M 12,54 0,42 v 12 z"/>
<path style="opacity:1;fill:#c0c0c0" d="M 24,42 12,54 V 42 Z"/>
<path style="opacity:1;fill:#8c8c8c" d="M 0,42 12,54 V 42 Z"/>
<path style="opacity:1" d="M 0,42 12,30 v 12 z"/>
<path style="opacity:1;fill:#2d2d2d" d="M 24,42 12,30 v 12 z"/>
</g>
<rect width="0.84375" x="26.15625" y="13.5" height="2.8125" style="fill:url(#linearGradient6452)" id="header-separator"/>
<g id="scrollbarslider-normal-left" transform="matrix(0.32142857,0,0,0.28125,32.785713,-462.02345)">
<path style="fill:#787878" d="m -98.0625,1605.25 0,31.5 h 1.31249 v -31.5 z "/>
<path style="opacity:.001" d="m -102,1605.25 v 31.5 h 3.9375 v -31.5 z "/>
</g>
<g id="scrollbarslider-normal-bottom" transform="matrix(0.28125,0,0,0.32142857,28.898437,-527.78571)">
<g>
<path style="fill:url(#linearGradient1530)" d="m -96.75,1636.75 v 1.3125 h 31.5 v -1.3125 z"/>
<path style="opacity:.001" d="M -96.75,1638.0625 V 1642 h 31.5 v -3.9375 z"/>
</g>
</g>
<g id="scrollbarslider-normal-right" transform="matrix(0.32142857,0,0,0.28125,31.520089,-462.02344)">
<path style="fill:#313131" d="m -65.25,1605.25 v 31.5 h 1.3125 v -31.5 z "/>
<path style="opacity:.001" d="m -63.9375,1605.25 0,31.5 h 3.9375 v -31.5 z "/>
</g>
<g id="scrollbarslider-normal-top" transform="matrix(0.28125,0,0,0.32142639,28.898437,-526.5166)">
<g>
<path style="fill:url(#linearGradient1528)" d="m -96.75,1603.9375 v 1.3125 h 31.5 v -1.3125 z"/>
<path style="opacity:.001" d="m -96.75,1600 v 3.9375 h 31.5 V 1600 Z"/>
</g>
</g>
<g id="scrollbarslider-normal-topleft" transform="matrix(0.31990521,0,0,0.32142639,32.63033,-526.51661)">
<path style="opacity:.001" d="m -102,1600 3.956256,3.9375 H -96.75 V 1600 Z"/>
<path style="opacity:.001" d="m -102,1600 v 5.25 h 3.95626 v -1.3125 z "/>
<path style="fill:url(#linearGradient1526)" d="m -98.0437,1603.9375 1.2687,1.3125 h 0.05 v -1.3125 z "/>
<path style="fill:#787878" d="m -98.0437,1603.9375 v 1.3125 h 1.29374 Z "/>
</g>
<g id="scrollbarslider-normal-bottomleft" transform="matrix(0.32142857,0,0,0.32142857,32.785714,-527.78572)">
<path style="opacity:.001" d="m -102,1636.75 v 5.25 l 3.9375,-3.9375 v -1.3125 z "/>
<path style="opacity:.001" d="M -98.062501,1638.0625 -102,1642 h 5.25 v -3.9375 z"/>
<path style="fill:#787878" d="m -98.0625,1636.75 0,1.3125 1.3125,-1.3125 z "/>
<path style="fill:url(#linearGradient1524)" d="m -96.75,1636.75 -1.3125,1.3125 h 1.3125 Z "/>
</g>
<g id="scrollbarslider-normal-topright" transform="matrix(0.32142857,0,0,0.32142639,31.520089,-526.5166)">
<path style="opacity:.001" d="m -65.25,1600 v 3.9375 h 1.312499 L -60,1600 Z"/>
<path style="opacity:.001" d="m -60,1600 -3.937501,3.9375 v 1.3125 H -60 Z"/>
<path style="fill:url(#linearGradient1522)" d="m -65.25,1603.9375 v 1.3125 l 1.3125,-1.3125 z "/>
<path style="fill:#313131" d="m -63.9375,1603.9375 -1.3125,1.3125 h 1.3125 z "/>
</g>
<g id="scrollbarslider-normal-bottomright" transform="matrix(0.32142857,0,0,0.32142857,31.520089,-527.78571)">
<path style="opacity:.001" d="M -65.25,1638.0625 V 1642 H -60 l -3.937501,-3.9375 z"/>
<path style="opacity:.001" d="m -63.937501,1636.75 v 1.3125 L -60,1642 v -5.25 z"/>
<path style="fill:url(#linearGradient1520)" d="m -65.25,1636.75 v 1.3125 h 1.3125 z "/>
<path style="fill:#313131" d="m -65.25,1636.75 1.3125,1.3125 v -1.3125 z "/>
</g>
<rect width="8.859375" x="1.6874981" y="-10.546885" height="8.859375" style="fill:url(#linearGradient8234);fill-rule:evenodd" id="scrollbarslider-normal"/>
<rect width="8.859375" x="14.327753" y="-10.546878" height="8.859375" style="fill:url(#linearGradient8333);fill-rule:evenodd" id="scrollbarslider-focused"/>
<use width="450" height="1380" id="scrollbarslider-focused-left" xlink:href="#scrollbarslider-normal-left" transform="translate(12.656249,0)"/>
<use width="450" height="1380" id="scrollbarslider-focused-bottom" xlink:href="#scrollbarslider-normal-bottom" transform="translate(12.640254,0)"/>
<use width="450" height="1380" id="scrollbarslider-focused-right" xlink:href="#scrollbarslider-normal-right" transform="translate(12.640254)"/>
<use width="450" height="1380" id="scrollbarslider-focused-top" xlink:href="#scrollbarslider-normal-top" transform="translate(12.656249,0)"/>
<use width="450" height="1380" id="scrollbarslider-focused-topleft" xlink:href="#scrollbarslider-normal-topleft" transform="translate(12.65625,0)"/>
<use width="450" height="1380" id="scrollbarslider-focused-bottomleft" xlink:href="#scrollbarslider-normal-bottomleft" transform="translate(12.65625,0)"/>
<use width="450" height="1380" id="scrollbarslider-focused-topright" xlink:href="#scrollbarslider-normal-topright" transform="translate(12.65625,0)"/>
<use width="450" height="1380" id="scrollbarslider-focused-bottomright" xlink:href="#scrollbarslider-normal-bottomright" transform="translate(12.640253,0)"/>
<g id="toolbar-normal-top" transform="matrix(0.28125,0,0,0.28125,-56.53125,-187.31251)">
<path style="opacity:.5;fill:#d0d0d0" d="m 210,672 v 3 h 30 v -3 z"/>
<path style="opacity:.01" d="m 210,669 v 3 h 30 v -3 z"/>
<path style="opacity:.01" d="m 210,666 v 3 h 30 v -3 z"/>
</g>
<g id="toolbar-normal-bottom" transform="matrix(0.28125,0,0,0.28125,-56.53125,-187.31251)">
<path style="opacity:.5" d="m 210,708 v 3 h 30 v -3 z"/>
<path style="opacity:.2" d="m 210,711 v 3 h 30 v -3 z"/>
<path style="opacity:.5;fill:#242424" d="m 210,705 v 3 h 30 v -3 z"/>
</g>
<path style="opacity:.5;fill:url(#linearGradient7005);stroke-width:.281" id="toolbar-normal" d="m 2.5312,2.5312 h 8.4375 v 8.4375 h -8.4375 z "/>
<path style="opacity:.3;fill:url(#linearGradient8841);stroke-width:.281" id="common-normal-left" d="m 27.8438,1.125 h 1.125 v 4.5 h -1.125 z "/>
<path style="opacity:.12;fill:url(#linearGradient9096);stroke-width:.281" id="common-normal-right" d="m 34.5938,1.125 h -1.125 v 4.5 h 1.125 z "/>
<path style="opacity:.15;fill:url(#linearGradient9129);stroke-width:.281" id="common-normal-bottom" d="M 33.46875,6.75 V 5.625 h -4.5 V 6.75 Z"/>
<path style="opacity:.4;fill:url(#linearGradient9145);stroke-width:.281" id="common-normal-top" d="m 33.46875,0 v 1.125 h -4.5 V 0 Z"/>
<g id="common-normal-topleft" transform="matrix(0.28125,0,0,0.28125,-11.8125,-506.53125)">
<path style="opacity:.3;fill:url(#linearGradient858)" d="m 141,1805 a 4,4 0 0 1 4,-4 v 4 z"/>
<path style="opacity:.4;fill:url(#linearGradient866)" d="m 141,1805 a 4,4 0 0 1 4,-4 v 4 z"/>
</g>
<g id="common-normal-topright" transform="matrix(0.28125,0,0,0.28125,-11.8125,-506.53125)">
<path style="opacity:.4;fill:url(#linearGradient9045)" d="m 165,1805 a 4,4 0 0 0 -4,-4 v 4 z"/>
<path style="opacity:.12;fill:url(#linearGradient850)" d="m 165,1805 a 4,4 0 0 0 -4,-4 v 4 z"/>
</g>
<g id="common-normal-bottomright" transform="matrix(0.28125,0,0,0.28125,-11.8125,-506.53125)">
<path style="opacity:.12;fill:url(#linearGradient9177)" d="m 165,1821 a 4,4 0 0 1 -4,4 v -4 z"/>
<path style="opacity:.15;fill:url(#linearGradient859)" d="m 165,1821 a 4,4 0 0 1 -4,4 v -4 z"/>
</g>
<g id="common-normal-bottomleft" transform="matrix(0.28125,0,0,0.28125,-11.8125,-506.53125)">
<path style="opacity:.15;fill:url(#linearGradient9231)" d="m 141,1821 a 4,4 0 0 0 4,4 v -4 z"/>
<path style="opacity:.3;fill:url(#linearGradient867)" d="m 141,1821 a 4,4 0 0 0 4,4 v -4 z"/>
</g>
</svg>
