#define desk_width 8
#define desk_height 8
static unsigned char desk_bits[] = {
   0x00, 0x66, 0x66, 0x00, 0x00, 0x66, 0x66, 0x00 };
