#define close_pressed_width 10
#define close_pressed_height 10
static unsigned char close_pressed_bits[] = {
   0x00, 0x00, 0x00, 0x00, 0x0c, 0x03, 0x9c, 0x03, 0xf8, 0x01, 0xf0, 0x00,
   0xf0, 0x00, 0xf8, 0x01, 0x9c, 0x03, 0x0c, 0x03 };
