#define desk_hover_width 9
#define desk_hover_height 9
static char desk_hover_bits[] = {
  0xC7, 0x01, 0xC7, 0x01, 0xC7, 0x01, 0x00, 0x00, 0x00, 0x00, 0x00, 0x00, 
  0xC7, 0x01, 0xC7, 0x01, 0xC7, 0x01, };
