<svg width="32" version="1.1" xmlns="http://www.w3.org/2000/svg" height="32">
<g style="color:#bebebe;stroke:none;stroke-width:2" id="layer12" transform="translate(-160,-652)">
<path style="fill:#39f" id="path4150" d="m 163.1667,652 c -1.76721,0 -3.16667,1.46397 -3.16667,3.25 v 25.5 c 0,1.78603 1.39946,3.25 3.16667,3.25 h 25.6667 c 1.76721,0 3.16667,-1.46397 3.16667,-3.25 v -25.5 c 0,-1.78603 -1.39946,-3.25 -3.16667,-3.25 z "/>
<g style="fill:#fff">
<path id="path4148" d="m 164.133,656.033 9.8,0 0,5.934 -3.966,0 0,3.966 -5.834,0 z"/>
<path id="path4146" d="m 178.067,656.033 9.9,0 0,9.9 -5.934,0 0,-3.966 -3.966,0 z"/>
<path id="path4144" d="m 164.133,670.067 5.834,0 0,3.966 3.966,0 0,6.034 -9.8,0 z"/>
<path id="rect11749-5-0-1" d="m 182.033,670.067 5.934,0 0,10 -9.9,0 0,-6.034 3.966,0 z"/>
</g>
</g>
</svg>
