<svg width="16" version="1.1" xmlns="http://www.w3.org/2000/svg" height="16">
<defs id="defs1">
<style type="text/css" id="current-color-scheme">
.ColorScheme-Text {
color:#000;
}
</style>
</defs>
<path style="fill:currentColor;fill-opacity:1;stroke:none" id="path819" d="m 7.9844,1 c -0.575561,0.0084714 -0.984375,0.308045 -0.984375,1.04688 v 4.95898 c 0,1.32384 2,1.35979 2,0 v -4.95898 c 0,-0.774058 -0.440076,-1.05532 -1.01562,-1.04688 z  m 2.9434,2.5391 a 0.6,0.6 0 0,0 -0.298828,1.12305 c 1.44322,0.904117 2.31968,2.48447 2.32227,4.1875 0,2.74138 -2.20979,4.95145 -4.95117,4.95117 -2.74138,0 -4.95145,-2.20979 -4.95117,-4.95117 0.0014122,-1.70425 0.878013,-3.28664 2.32227,-4.19141 a 0.6,0.6 0 0,0 -0.3125,-1.11133 0.6,0.6 0 0,0 -0.324219,0.0957031 c -1.79278,1.12311 -2.88301,3.09151 -2.88477,5.20703 0,3.3899 2.76049,6.15074 6.15039,6.15039 3.3899,0 6.15074,-2.7605 6.15039,-6.15039 a 0.6,0.6 0 0,0 0,-0.0019532 c -0.0032,-2.11401 -1.09326,-4.07887 -2.88477,-5.20117 a 0.6,0.6 0 0,0 -0.337891,-0.107422 z " class="ColorScheme-Text"/>
</svg>
