<svg width="16" version="1.0" xmlns="http://www.w3.org/2000/svg" viewBox="0 0 16 16" height="16">
<defs id="defs1">
<style type="text/css" id="current-color-scheme">
.ColorScheme-Text {
color:#000;
}
</style>
</defs>
<path style="fill:currentColor;fill-opacity:1;stroke:none" id="path9" d="m 13.3734,3.5639 c -0.861578,-1.108 -0.816321,-1.41245 -1.88301,-0.544564 l -.8605,.7001 c -0.622924,-0.39811 -1.39101,-0.651101 -2.13455,-0.748474 l -.2518,-1.0344 c -0.346006,-1.42139 -0.76425,-0.890428 -1.95037,-0.557294 -1.32293,0.36684 -1.78929,0.123439 -1.44417,1.46878 l .2544,.9917 c -0.0900724,0.0800387 -0.21513,0.175036 -0.305202,0.255075 -0.375174,0.28499 -0.670717,0.660521 -0.931278,1.02109 l -.9977,-.2586 c -1.34738,-0.349284 -1.14121,0.227805 -1.48137,1.38087 -0.416947,1.35592 -0.800701,1.55512 0.563897,1.91835 l 1.0476,.2788 c 0.023751,0.44665 0.132353,0.898554 0.325805,1.3557 l -.8605,.7001 c -1.10557,0.899525 -0.633781,0.976158 0.16197,1.94485 0.861578,1.108 0.816321,1.41245 1.88301,0.544564 l .8605,-.7001 c 0.622924,0.39811 1.39101,0.651104 2.13456,0.748474 l .2518,1.0344 c 0.346007,1.42139 0.764254,0.890427 1.95037,0.557294 1.32293,-0.366841 1.78929,-0.123426 1.44417,-1.46879 l -.2544,-.9917 c 0.09007,-0.08004 0.215129,-0.175037 0.305202,-0.255075 0.375174,-0.28499 0.670718,-0.660521 0.931278,-1.02109 l .9977,.2586 c 1.2921,0.519051 1.1412,-0.227804 1.48137,-1.38087 0.416947,-1.35592 0.8007,-1.55512 -0.563898,-1.91835 l -1.0476,-.2788 c -0.02375,-0.446651 -0.132353,-0.898554 -0.325805,-1.35571 l .8605,-.7001 c 1.10557,-0.899524 0.633781,-0.976161 -0.161971,-1.94485 Z  m -4.2218,5.9371 c -0.86052,0.700143 -2.14815,0.586229 -2.87968,-0.26378 -0.731524,-0.850015 -0.583214,-2.15926 0.262424,-2.89457 0.860521,-0.700144 2.14815,-0.586231 2.87968,0.263781 0.696541,0.864971 0.583218,2.15926 -0.262423,2.89457 z " class="ColorScheme-Text"/>
</svg>
