<svg width="128" version="1.0" xmlns="http://www.w3.org/2000/svg" height="128" xmlns:xlink="http://www.w3.org/1999/xlink">
<defs id="defs17">
<path id="XMLID_10_" d="m 69.626,12.145 -.052,0 c -22.727,-0.292 -46.472,4.077 -46.709,4.122 -2.424,0.451 -4.946,2.974 -5.397,5.397 -0.044,0.237 -4.414,23.983 -4.122,46.71 -0.292,22.777 4.078,46.523 4.122,46.761 0.451,2.423 2.974,4.945 5.398,5.398 0.237,0.044 23.982,4.413 46.709,4.121 22.779,0.292 46.524,-4.077 46.761,-4.121 2.423,-0.452 4.946,-2.976 5.398,-5.399 0.044,-0.236 4.413,-23.981 4.121,-46.709 0.292,-22.777 -4.077,-46.523 -4.121,-46.761 -0.453,-2.423 -2.976,-4.946 -5.398,-5.397 -0.238,-0.045 -23.984,-4.414 -46.71,-4.122 z "/>
</defs>
<path style="fill:#f06000" id="path4177" d="m 49.3013,0 c -0.450458,0 -0.843471,0.302314 -0.95047,0.741634 l -3.9625,16.1365 c -3.31238,0.890614 -6.43641,2.21376 -9.3253,3.90897 l -7.1379,-4.664 -7.0281,-4.5971 c -0.390352,-0.253579 -0.90604,-0.204763 -1.23695,0.123154 l -7.5556,7.5743 c -0.320999,0.319438 -0.398452,0.808803 -0.16332,1.19411 l 5.1593,8.4819 .0053,-.0053 3.7403,6.158 c -1.57595,2.64182 -2.85812,5.47751 -3.75904,8.48193 l -16.3052,3.3788 c -0.453759,0.09353 -0.781793,0.524267 -0.781793,0.987951 v 5.41365 h 33.4726 a 20.5614,20.5614 0 0,1 19.842,-19.8527 v -33.4618 h -4.01338 z "/>
<path style="fill:#dede00" id="path4175" d="m 54.6855,0 0,33.4726 a 20.5614,20.5614 0 0,1 19.8527,19.842 h 33.4618 v -3.917 c 0,-0.45249 -0.34256,-0.838407 -0.78179,-0.945113 l -15.8126,-3.8286 c -0.845432,-3.47831 -2.15068,-6.80763 -3.87952,-9.83935 l 9.1647,-13.9143 c 0.255612,-0.388604 0.206419,-0.906265 -0.123154,-1.23427 l -7.5957,-7.5743 c -0.320006,-0.318112 -0.813074,-0.357708 -1.19947,-0.123154 l -14.3641,8.6854 c -2.81766,-1.62224 -5.86803,-2.92036 -9.08166,-3.78581 l -3.344,-16.0562 c -0.093791,-0.453807 -0.485812,-0.781793 -0.950468,-0.781793 h -5.34672 z "/>
<path style="fill:#91beff" id="path4173" d="m .0001,54.6854 0,3.9143 c 0,0.45249 0.342563,0.841085 0.781793,0.947791 l 15.8126,3.8286 c 0.845432,3.47831 2.15068,6.80494 3.87952,9.83668 l -9.1647,13.9143 c -0.255612,0.388605 -0.20642,0.906265 0.123155,1.23427 l 7.5957,7.577 c 0.320007,0.31811 0.813076,0.3577 1.19947,0.1231 l 14.3668,-8.6881 c 2.81766,1.62224 5.86534,2.92303 9.07898,3.78848 l 3.3467,16.0535 c 0.09379,0.45381 0.483134,0.78448 0.94779,0.78448 h 5.34672 v -33.4726 a 20.5614,20.5614 0 0,1 -19.8527,-19.842 h -33.4618 z "/>
<path style="fill:#db9700" id="path4161" d="m 74.5275,54.6854 a 20.5614,20.5614 0 0,1 -19.842,19.8527 v 33.4618 h 4.01606 c 0.450454,0 0.840791,-0.30232 0.94779,-0.74164 l 3.9625,-16.1365 c 3.31315,-0.890811 6.43851,-2.2132 9.32798,-3.90896 l 7.0843,4.6292 7.079,4.6292 c 0.390348,0.25357 0.906039,0.20475 1.23695,-0.1231 l 7.5556,-7.5743 c 0.08581,-0.0854 0.148252,-0.184731 0.198125,-0.28916 0.136671,-0.286168 0.137463,-0.622656 -0.0348,-0.904951 l -5.1566,-8.4792 -.0053,.0053 -3.7403,-6.1606 c 1.57595,-2.64182 2.85544,-5.47483 3.75636,-8.47925 l 16.3052,-3.3762 c 0.45375,-0.09353 0.78179,-0.524267 0.78179,-0.987951 v -5.41633 h -33.4726 z "/>
<g style="fill-rule:evenodd" id="g3758" transform="matrix(1.0461068,-0.05810344,0.05810344,1.0461068,-4.455803,-0.52732152)">
<path style="fill:#89590c;stroke:none" id="path3096-2" d="m 77.1475,79.9553 c 10.0311,-9.52866 27.0041,-28.2862 47.9812,-57.2805 0.84398,-0.934723 -0.5609,-1.73823 -1.33935,-1.33934 -31.6933,22.1956 -48.2195,38.3541 -57.2606,47.834"/>
<path style="fill:#f0f0f0;stroke:#646464;stroke-width:1.5" id="path3098-0" d="m 67.1156,69.5927 c 3.96842,1.59073 7.49479,4.11464 9.46895,9.91543 -5.34491,5.35784 -19.9922,17.2098 -29.9525,22.7564 l -2.9253,-4.0564 c 5.65981,-8.22424 14.7636,-20.4249 23.4088,-28.6156 z "/>
<path style="fill:#353535;stroke:none" id="path3100-7" d="m 17.9814,115.1805 c 12.5723,0.005 10.0697,-12.5888 17.4115,-17.1229 7.20559,-4.45008 13.9904,0.871549 14.7683,5.86226 0.994998,6.38392 -2.15624,12.4564 -9.47867,15.4155 -6.76864,2.73532 -20.0683,1.67596 -22.7011,-4.15485 z "/>
</g>
</svg>
