<svg width="16" version="1.1" xmlns="http://www.w3.org/2000/svg" height="16">
<defs id="defs1">
<style type="text/css" id="current-color-scheme">
.ColorScheme-Text {
color:#000;
}
</style>
</defs>
<path style="fill:currentColor;fill-opacity:1;stroke:none" id="path3908" d="m 13.1929,1 -1.3579,1.2585 c -0.397851,0.368381 -0.467434,1.00624 -0.235779,1.49442 l -5.1889,5.2493 a 1.31439,1.30231 0 0,0 -0.025815,0 1.31439,1.30231 0 0,0 -0.741755,-0.12995 1.31439,1.30231 0 0,0 -0.762406,0.38472 l -3.4782,3.5001 a 1.31655,1.30444 0 1,0 1.8759,1.82955 l 3.4782,-3.4984 a 1.31439,1.30231 0 0,0 0.261593,-1.52178 l 5.1889,-5.2219 c 0.491526,0.217436 1.12212,0.127992 1.50416,-0.256481 l 1.2477,-1.3661 -1.7657,-1.7218 Z  m -9.0835,.0786 c -0.351872,0 -0.692296,0.081134 -1.00679,0.189796 l 1.6608,1.6449 c 0.341316,0.338161 0.341316,0.875822 0,1.21401 l -.6264,.6206 c -0.341316,0.33817 -0.884047,0.33817 -1.22535,0 l -1.6608,-1.6449 c -0.109651,0.311582 -0.191032,0.648213 -0.191032,0.99685 0,1.66869 1.36545,3.02133 3.04963,3.02133 0.351872,0 0.692296,-0.079442 1.00679,-0.188085 l 1.0361,1.0259 a 2.17841,2.15837 0 0,1 0.053352,0 l 1.8243,-1.8074 -1.0619,-1.0532 c 0.109651,-0.311591 0.191032,-0.649923 0.191032,-0.998557 0,-1.66869 -1.36545,-3.02133 -3.04963,-3.02133 z  m 5.7722,6.9061 -1.8243,1.8074 a 2.17841,2.15837 0 0,1 0.027536,0.08207 l 1.0068,.9985 c -0.109651,0.311626 -0.191032,0.648222 -0.191032,0.996851 0,1.66869 1.36545,3.02133 3.04963,3.02133 0.381946,0 0.752453,-0.0884 1.0894,-0.215443 l -1.7691,-1.7527 c -0.341317,-0.338178 -0.341317,-0.903183 0,-1.24137 l .5989,-.5933 c 0.170653,-0.169094 0.403733,-0.27016 0.626446,-0.27016 0.222721,0 0.455785,0.101065 0.626447,0.27016 l 1.7141,1.6996 c 0.09239,-0.288532 0.163496,-0.59936 0.163496,-0.918197 0,-1.66869 -1.36545,-3.02133 -3.04963,-3.02133 -0.351872,0 -0.692305,0.081152 -1.00679,0.189796 l -1.0619,-1.0532 Z " class="ColorScheme-Text"/>
</svg>
