<svg width="48" version="1.1" xmlns="http://www.w3.org/2000/svg" viewBox="0 0 48 48" height="48" style="overflow:visible;enable-background:new 0 0 128 128">
<path style="fill:#a0a0a0;stroke:#505050;stroke-width:.5" id="rect3006" d="m 45.6889,3.5923 -1.7693,3.0648 c -1.49077,0.869208 -3.01259,1.87407 -4.20806,3.10878 l -31.1825,32.2061 -2.4866,-2.3814 31.1825,-32.2061 c 1.19546,-1.23471 2.34049,-2.78279 2.96474,-4.29947 l 3.0126,-1.8741 2.4866,2.3814 z "/>
<path style="fill:#c8c8c8;stroke:#000;stroke-linejoin:round;stroke-linecap:round;stroke-width:.159;stroke-dashoffset:1.088" id="path3925" d="m 45.6889,3.5923 -1.7693,3.0648 c -4.93449,2.53264 -5.22273,0.372771 -3.72997,-3.57208 l 3.0126,-1.8741 2.4866,2.3814 z "/>
<path style="fill:#dd8c00;stroke:none" id="rect3956" d="m 23.1457,30.1482 -1.941,2.0047 c -1.11264,0.176322 -2.25062,0.704544 -3.16111,1.64492 -0.920649,0.950869 -1.45085,2.12619 -1.57855,3.25033 l -9.1461,9.4464 c -2.12269,2.19238 -7.91108,-3.32323 -5.77444,-5.53001 l 9.1461,-9.4464 c 1.12468,-0.169361 2.28559,-0.740669 3.20625,-1.69154 0.910486,-0.940372 1.39826,-2.09128 1.53341,-3.20371 l 1.941,-2.0047 5.7744,5.53 z "/>
<path style="fill:#a0a0a0;stroke:#505050;stroke-width:.5" id="path6" d="m 6.2539,3.098 c -0.124964,0.068734 -0.205183,0.197107 -0.212752,0.339608 -9e-05,0.00371 -0.000189,0.00783 -0.000279,0.011539 -0.0033,0.138068 0.06277,0.269154 0.176742,0.3482 0,0 4.91863,3.42292 5.21792,3.63139 0.02821,0.3343 0.277695,3.28557 0.301479,3.56409 -0.173704,0.225497 -2.81708,3.65447 -3.16151,4.10183 -0.547767,-0.250774 -6.88236,-3.1512 -6.88236,-3.1512 -0.134592,-0.06181 -0.292086,-0.04624 -0.412533,0.04034 -0.105341,0.07581 -0.168051,0.196355 -0.171149,0.324531 -0.000422,0.01772 0.000356,0.03589 0.0024,0.05408 0.335508,3.1117 1.8554,5.96667 3.97985,7.54178 0.02551,0.08763 0.06344,0.173497 0.138417,0.227682 1.17868,0.849137 3.14676,1.45549 3.87908,1.66289 0.01552,0.449871 0.06554,1.89483 0.06554,1.89483 0.0072,0.215437 0.179475,0.388679 0.394523,0.397589 l 2.3408,.0991 c 0.226166,0.0096 0.417613,-0.165167 0.429265,-0.391284 0,0 0.06953,-1.39176 0.09347,-1.87037 0.375004,-0.05733 0.893228,-0.136761 0.893228,-0.136761 0.75891,-0.09052 5.31127,2.4996 7.23491,3.35767 0.15871,0.07064 0.344336,0.03431 0.465296,-0.09061 l 4.3139,-4.4843 c 0.138328,-0.143876 0.154022,-0.366596 0.03627,-0.52821 -1.49863,-2.06268 -4.3158,-5.87604 -4.30329,-6.39369 0.359525,-3.12895 -0.539533,-6.4327 -2.63642,-8.68006 -3.12408,-3.34826 -8.16871,-4.08418 -12.1827,-1.87064 z "/>
<path style="fill:#bb2121" id="path68" d="m 45.8193,37.6192 c -1.83142,-1.94371 -20.4124,-17.6432 -20.4124,-17.6432 l -5.0747,5.115 c 0,0 16.373,17.36 18.2035,19.3037 1.83057,1.94451 4.94427,2.0037 6.95615,0.133107 2.01064,-1.87063 2.15799,-4.96364 0.327434,-6.90856 z  m -2.0726,5.0135 c -0.935815,0.892039 -2.41788,0.856208 -3.30908,-0.08 -0.891643,-0.935393 -0.855812,-2.41745 0.07998,-3.30826 0.935815,-0.892042 2.41788,-0.856213 3.30908,0.08 0.891651,0.934983 0.855824,2.41704 -0.07997,3.30826 z "/>
<rect width="4.9939094" x="-5.1598392" y="21.794134" rx="0.76486957" height="4.0719094" ry="0.76486957" style="fill:#f0f0f0;stroke:#505050;stroke-width:.5" id="rect3853" transform="matrix(0.64484535,-0.76431308,0.76431308,0.64484535,0,0)"/>
</svg>
