<svg version="1.1" xmlns="http://www.w3.org/2000/svg" viewBox="0 0 16 16">
<defs id="defs1">
<style type="text/css" id="current-color-scheme">
.ColorScheme-Text {
color:#000;
}
</style>
</defs>
<path style="fill:currentColor;fill-opacity:1;stroke:none" id="path4488" d="m 4.7031,0 c -0.211483,-0.00235131 -0.498263,0.152507 -0.921875,0.271484 -0.944948,0.26203 -1.27777,0.0878691 -1.03125,1.04883 l .1816,.709 c -0.0643333,0.0571714 -0.154412,0.12447 -0.21875,0.181641 -0.26798,0.203564 -0.4799,0.470965 -0.666016,0.728516 l -.7109,-.1836 c -0.962413,-0.249489 -0.815619,0.16271 -1.05859,0.986328 -0.297818,0.968513 -0.57237,1.10969 0.402344,1.36914 l .748,.1992 c 0.016962,0.319036 0.0942468,0.642215 0.232422,0.96875 l -.6133,.5 c -0.789691,0.642515 -0.453159,0.69675 0.115234,1.38867 0.615411,0.791427 0.583781,1.01055 1.3457,0.390625 l .6133,-.502 c 0.444945,0.284365 0.994288,0.465606 1.52539,0.535156 l .1797,.7383 c 0.247149,1.01528 0.545355,0.636392 1.39258,0.398438 0.944949,-0.262029 1.27777,-0.0878589 1.03125,-1.04883 l -.1816,-.709 c 0.064333,-0.057171 0.154414,-0.124471 0.21875,-0.181641 0.267981,-0.203565 0.4799,-0.470966 0.666016,-0.728516 l .7109,.1836 c 0.922931,0.37075 0.815619,-0.16271 1.05859,-0.986328 0.297819,-0.968513 0.57237,-1.10969 -0.402344,-1.36914 l -.748,-.1992 c -0.0169714,-0.319036 -0.0942475,-0.642214 -0.232422,-0.96875 l .6133,-.5 c 0.789692,-0.642516 0.453158,-0.696751 -0.115234,-1.38867 -0.615412,-0.791428 -0.583783,-1.01055 -1.3457,-0.390625 l -.6133,.502 c -0.444945,-0.284365 -0.994287,-0.465606 -1.52539,-0.535156 l -.1797,-.7383 c -0.123574,-0.507638 -0.25922,-0.667571 -0.470703,-0.669922 z  m .0332,3.4961 c 0.46544,-0.0448947 0.946864,0.128343 1.27344,0.507812 0.497529,0.617835 0.416527,1.54314 -0.1875,2.06836 -0.614656,0.500103 -1.53412,0.417697 -2.05664,-0.189453 -0.522518,-0.60715 -0.416528,-1.54119 0.1875,-2.06641 0.230496,-0.187538 0.503939,-0.293376 0.783203,-0.320312 z  m 10.6953,.8379 c -0.97358,0.109326 -2.51932,1.14178 -4.54102,3.19531 -0.97672,0.992104 -1.7567,2.27934 -2.07812,3.14063 0.437501,0.233425 0.759673,0.477584 1.00195,0.947266 0.848335,-0.365276 2.04319,-1.2233 3.01953,-2.21484 2.48432,-2.52299 3.57742,-4.40218 3.02539,-4.96289 -0.05657,-0.057834 -0.133387,-0.0924036 -0.232422,-0.105469 -0.05805,-0.0078 -0.123334,-0.0078 -0.195312,0 z  m -7.9727,6.7363 c -2.72167,0.112201 -3.14353,4.17418 -6.82617,1.63867 4.04717,5.60049 8.06391,2.57988 8.52734,1.03906 0.377718,-1.25584 -0.514558,-2.72664 -1.70117,-2.67774 z " class="ColorScheme-Text"/>
</svg>
