<svg version="1.1" xmlns="http://www.w3.org/2000/svg" viewBox="0 0 16 16">
<defs id="defs1">
<style type="text/css" id="current-color-scheme">
.ColorScheme-Text {
color:#000;
}
</style>
</defs>
<path style="fill:currentColor;fill-opacity:1;stroke:none" id="path4" d="M 7,2 V 3.10156 C 6.374051,3.230714 5.77867,3.478679 5.24609,3.832029 l -0.7812,-0.7812 -1.4141,1.4141 0.7812,0.7812 C 3.480017,5.779 3.233385,6.374369 3.105428,7.000039 h -1.10547 v 2 h 1.10156 c 0.129154,0.625949 0.377119,1.22133 0.730469,1.75391 l -0.7793,0.7812 1.4141,1.4141 0.7793,-0.7812 c 0.3522502,-0.338941 0.609792,-0.649021 0.609792,-0.649021 0,0 -0.4842073,-0.47964 -0.725022,-0.731837 -0.725193,-0.746535 -1.13086,-1.74633 -1.13086,-2.78711 2.5e-6,-1.08098 0.437518,-2.11594 1.21289,-2.86914 0.746535,-0.725194 1.74633,-1.13086 2.78711,-1.13086 1.08098,2.4e-6 2.11594,0.437518 2.86914,1.21289 0.143053,0.1634787 0.585022,0.7087637 0.585022,0.7087637 0,0 0.394565,-0.3807316 0.713809,-0.6755637 l 0.7812,-0.7812 -1.4141,-1.4141 -0.7812,0.7812 C 10.220997,3.480098 9.625628,3.233466 8.999958,3.105509 v -1.10547 h -2 z m 3,5 v 4 H 7 l 4.5,5 4.5,-5 H 13 V 7 Z" class="ColorScheme-Text"/>
</svg>
